<?xml version="1.0" encoding="iso-8859-1"?>
<!-- Uploaded to: SVG Repo, www.svgrepo.com, Generator: SVG Repo Mixer Tools -->
<svg version="1.1" id="Layer_1" xmlns="http://www.w3.org/2000/svg" xmlns:xlink="http://www.w3.org/1999/xlink" 
	 viewBox="0 0 512 512" xml:space="preserve">
<rect style="fill:#E50914;" width="512" height="512"/>
<g>
	<path style="fill:#FFFFFF;" d="M155.64,250.944c-4.84,2.496-15.528,5.008-29.064,5.008c-35.736,0-57.44-22.384-57.44-56.608
		c0-37.08,25.712-59.456,60.112-59.456c13.528,0,23.216,2.832,27.392,5.008l-4.504,16.368c-5.344-2.336-12.696-4.344-22.048-4.344
		c-22.872,0-39.408,14.368-39.408,41.416c0,24.72,14.52,40.576,39.24,40.576c8.352,0,17.032-1.664,22.376-4.168L155.64,250.944z"/>
	<path style="fill:#FFFFFF;" d="M171.872,135.712h20.704v118.56h-20.704V135.712z"/>
	<path style="fill:#FFFFFF;" d="M236.68,150.24c0,6.176-4.504,11.024-11.688,11.024c-6.848,0-11.36-4.84-11.36-11.024
		c0-6.344,4.68-11.184,11.52-11.184C232.168,139.048,236.512,143.896,236.68,150.24z M214.808,254.28v-81.336h20.704v81.328
		L214.808,254.28L214.808,254.28z"/>
	<path style="fill:#FFFFFF;" d="M317.352,251.768c-4.344,2.008-12.856,4.176-23.048,4.176c-25.384,0-41.912-16.2-41.912-41.416
		c0-24.384,16.704-43.424,45.256-43.424c7.512,0,15.192,1.672,19.864,3.84l-3.672,15.36c-3.336-1.504-8.176-3.168-15.528-3.168
		c-15.696,0-25.048,11.52-24.88,26.392c0,16.696,10.856,26.208,24.88,26.208c7.176,0,12.192-1.504,16.2-3.168L317.352,251.768z"/>
	<path style="fill:#FFFFFF;" d="M353.112,208.688h0.336c2-3.168,4.336-6.68,6.504-9.52l19.704-26.216h24.72l-30.064,33.232
		l34.408,48.096h-25.216l-23.376-35.904l-7.016,8.184v27.72h-20.536V135.72h20.536V208.688z"/>
</g>
<rect x="382.205" y="318.67" transform="matrix(-0.7071 0.7071 -0.7071 -0.7071 944.4579 338.9003)" width="39.672" height="92.767"/>
<polygon points="342.176,392.12 427.736,306.568 324.16,288.552 "/>
</svg>